<mxfile host="65bd71144e">
    <diagram id="fj433AqaS0m76Oce45b2" name="Page-1">
        <mxGraphModel dx="797" dy="916" grid="1" gridSize="10" guides="1" tooltips="1" connect="1" arrows="1" fold="1" page="1" pageScale="1" pageWidth="850" pageHeight="1100" math="0" shadow="0">
            <root>
                <mxCell id="0"/>
                <mxCell id="1" parent="0"/>
                <mxCell id="3" value="Contract" style="swimlane;whiteSpace=wrap;html=1;" vertex="1" parent="1">
                    <mxGeometry x="130" y="100" width="770" height="280" as="geometry"/>
                </mxCell>
                <mxCell id="4" value="&lt;div&gt;&lt;div style=&quot;color: rgb(0, 0, 0); background-color: rgb(255, 255, 255); font-family: &amp;quot;Droid Sans Mono&amp;quot;, &amp;quot;monospace&amp;quot;, monospace; font-size: 14px; line-height: 19px; white-space: pre;&quot;&gt;&lt;span style=&quot;color: rgb(0, 0, 255);&quot;&gt;pub&lt;/span&gt;&lt;span style=&quot;color: rgb(0, 0, 0);&quot;&gt; &lt;/span&gt;&lt;span style=&quot;color: rgb(0, 0, 255);&quot;&gt;fn&lt;/span&gt;&lt;span style=&quot;color: rgb(0, 0, 0);&quot;&gt; &lt;/span&gt;&lt;span style=&quot;color: rgb(0, 0, 0);&quot;&gt;schedule&lt;/span&gt;&lt;span style=&quot;color: rgb(0, 0, 0);&quot;&gt;(&lt;/span&gt;&lt;span style=&quot;color: rgb(128, 128, 128);&quot;&gt;to&lt;/span&gt;&lt;span style=&quot;color: rgb(0, 0, 0);&quot;&gt;: &amp;amp;&lt;/span&gt;&lt;span style=&quot;color: rgb(43, 145, 175);&quot;&gt;IsoDatetime&lt;/span&gt;&lt;span style=&quot;color: rgb(0, 0, 0);&quot;&gt;, &lt;/span&gt;&lt;span style=&quot;color: rgb(128, 128, 128);&quot;&gt;model&lt;/span&gt;&lt;span style=&quot;color: rgb(0, 0, 0);&quot;&gt;: &amp;amp;&lt;/span&gt;&lt;span style=&quot;color: rgb(43, 145, 175);&quot;&gt;ContractModel&lt;/span&gt;&lt;span style=&quot;color: rgb(0, 0, 0);&quot;&gt;)&lt;/span&gt;&lt;/div&gt;&lt;/div&gt;&lt;div&gt;&lt;div style=&quot;color: rgb(0, 0, 0); background-color: rgb(255, 255, 255); font-family: &amp;quot;Droid Sans Mono&amp;quot;, &amp;quot;monospace&amp;quot;, monospace; font-size: 14px; line-height: 19px; white-space: pre;&quot;&gt;&lt;span style=&quot;color: rgb(0, 0, 255);&quot;&gt;pub&lt;/span&gt;&lt;span style=&quot;color: rgb(0, 0, 0);&quot;&gt; &lt;/span&gt;&lt;span style=&quot;color: rgb(0, 0, 255);&quot;&gt;fn&lt;/span&gt;&lt;span style=&quot;color: rgb(0, 0, 0);&quot;&gt; &lt;/span&gt;&lt;span style=&quot;color: rgb(0, 0, 0);&quot;&gt;apply&lt;/span&gt;&lt;span style=&quot;color: rgb(0, 0, 0);&quot;&gt;(&lt;/span&gt;&lt;span style=&quot;color: rgb(128, 128, 128);&quot;&gt;events&lt;/span&gt;&lt;span style=&quot;color: rgb(0, 0, 0);&quot;&gt;: &lt;/span&gt;&lt;span style=&quot;color: rgb(43, 145, 175);&quot;&gt;Vec&lt;/span&gt;&lt;span style=&quot;color: rgb(0, 0, 0);&quot;&gt;&amp;lt;&lt;/span&gt;&lt;span style=&quot;color: rgb(43, 145, 175);&quot;&gt;ContractEvent&lt;/span&gt;&lt;span style=&quot;color: rgb(0, 0, 0);&quot;&gt;&amp;gt;, &lt;/span&gt;&lt;span style=&quot;color: rgb(128, 128, 128);&quot;&gt;model&lt;/span&gt;&lt;span style=&quot;color: rgb(0, 0, 0);&quot;&gt;: &amp;amp;&lt;/span&gt;&lt;span style=&quot;color: rgb(43, 145, 175);&quot;&gt;ContractModel&lt;/span&gt;&lt;span style=&quot;color: rgb(0, 0, 0);&quot;&gt;, &lt;/span&gt;&lt;span style=&quot;color: rgb(128, 128, 128);&quot;&gt;observer&lt;/span&gt;&lt;span style=&quot;color: rgb(0, 0, 0);&quot;&gt;: &amp;amp;&lt;/span&gt;&lt;span style=&quot;color: rgb(43, 145, 175);&quot;&gt;RiskFactorModel&lt;/span&gt;&lt;span style=&quot;color: rgb(0, 0, 0);&quot;&gt;)&lt;/span&gt;&lt;/div&gt;&lt;/div&gt;&lt;div&gt;&lt;div style=&quot;color: rgb(0, 0, 0); background-color: rgb(255, 255, 255); font-family: &amp;quot;Droid Sans Mono&amp;quot;, &amp;quot;monospace&amp;quot;, monospace; font-size: 14px; line-height: 19px; white-space: pre;&quot;&gt;&lt;div style=&quot;color: rgb(0, 0, 0); line-height: 19px;&quot;&gt;&lt;span style=&quot;color: #0000ff;&quot;&gt;fn&lt;/span&gt;&lt;span style=&quot;color: #000000;&quot;&gt; &lt;/span&gt;&lt;span style=&quot;color: #000000;&quot;&gt;init_StateSpace&lt;/span&gt;&lt;span style=&quot;color: #000000;&quot;&gt;(&lt;/span&gt;&lt;span style=&quot;color: #808080;&quot;&gt;model&lt;/span&gt;&lt;span style=&quot;color: #000000;&quot;&gt;: &amp;amp;&lt;/span&gt;&lt;span style=&quot;color: #2b91af;&quot;&gt;ContractModel&lt;/span&gt;&lt;span style=&quot;color: #000000;&quot;&gt;) &lt;/span&gt;&lt;/div&gt;&lt;/div&gt;&lt;/div&gt;" style="rounded=0;whiteSpace=wrap;html=1;align=left;" vertex="1" parent="3">
                    <mxGeometry y="30" width="770" height="240" as="geometry"/>
                </mxCell>
                <mxCell id="6" value="Contract Event Struct" style="swimlane;whiteSpace=wrap;html=1;" vertex="1" parent="1">
                    <mxGeometry x="130" y="440" width="770" height="380" as="geometry"/>
                </mxCell>
                <mxCell id="7" value="&lt;div style=&quot;color: rgb(0, 0, 0); background-color: rgb(255, 255, 255); font-family: &amp;quot;Droid Sans Mono&amp;quot;, &amp;quot;monospace&amp;quot;, monospace; font-size: 14px; line-height: 19px; white-space: pre;&quot;&gt;&lt;div&gt;&lt;span style=&quot;color: rgb(0, 0, 255);&quot;&gt;pub&lt;/span&gt;&lt;span style=&quot;color: rgb(0, 0, 0);&quot;&gt; &lt;/span&gt;&lt;span style=&quot;color: rgb(0, 0, 255);&quot;&gt;struct&lt;/span&gt;&lt;span style=&quot;color: rgb(0, 0, 0);&quot;&gt; &lt;/span&gt;&lt;span style=&quot;color: rgb(43, 145, 175);&quot;&gt;ContractEvent&lt;/span&gt;&lt;span style=&quot;color: rgb(0, 0, 0);&quot;&gt;&amp;lt;&lt;/span&gt;&lt;span style=&quot;color: rgb(43, 145, 175);&quot;&gt;T1&lt;/span&gt;&lt;span style=&quot;color: rgb(0, 0, 0);&quot;&gt;, &lt;/span&gt;&lt;span style=&quot;color: rgb(43, 145, 175);&quot;&gt;T2&lt;/span&gt;&lt;span style=&quot;color: rgb(0, 0, 0);&quot;&gt;&amp;gt; {&lt;/span&gt;&lt;/div&gt;&lt;div&gt;&lt;span style=&quot;color: rgb(0, 0, 0);&quot;&gt;    &lt;/span&gt;&lt;span style=&quot;color: rgb(0, 0, 0);&quot;&gt;_marker_t1&lt;/span&gt;&lt;span style=&quot;color: rgb(0, 0, 0);&quot;&gt;: &lt;/span&gt;&lt;span style=&quot;color: rgb(43, 145, 175);&quot;&gt;PhantomData&lt;/span&gt;&lt;span style=&quot;color: rgb(0, 0, 0);&quot;&gt;&amp;lt;&lt;/span&gt;&lt;span style=&quot;color: rgb(43, 145, 175);&quot;&gt;T1&lt;/span&gt;&lt;span style=&quot;color: rgb(0, 0, 0);&quot;&gt;&amp;gt;,&lt;/span&gt;&lt;/div&gt;&lt;div&gt;&lt;span style=&quot;color: rgb(0, 0, 0);&quot;&gt;    &lt;/span&gt;&lt;span style=&quot;color: rgb(0, 0, 0);&quot;&gt;_marker_t2&lt;/span&gt;&lt;span style=&quot;color: rgb(0, 0, 0);&quot;&gt;: &lt;/span&gt;&lt;span style=&quot;color: rgb(43, 145, 175);&quot;&gt;PhantomData&lt;/span&gt;&lt;span style=&quot;color: rgb(0, 0, 0);&quot;&gt;&amp;lt;&lt;/span&gt;&lt;span style=&quot;color: rgb(43, 145, 175);&quot;&gt;T2&lt;/span&gt;&lt;span style=&quot;color: rgb(0, 0, 0);&quot;&gt;&amp;gt;,&lt;/span&gt;&lt;/div&gt;&lt;div&gt;&lt;span style=&quot;color: rgb(0, 0, 0);&quot;&gt;    &lt;/span&gt;&lt;span style=&quot;color: rgb(0, 0, 255);&quot;&gt;pub&lt;/span&gt;&lt;span style=&quot;color: rgb(0, 0, 0);&quot;&gt; &lt;/span&gt;&lt;span style=&quot;color: rgb(0, 0, 0);&quot;&gt;epoch_offset&lt;/span&gt;&lt;span style=&quot;color: rgb(0, 0, 0);&quot;&gt;: &lt;/span&gt;&lt;span style=&quot;color: rgb(43, 145, 175);&quot;&gt;Option&lt;/span&gt;&lt;span style=&quot;color: rgb(0, 0, 0);&quot;&gt;&amp;lt;&lt;/span&gt;&lt;span style=&quot;color: rgb(43, 145, 175);&quot;&gt;i64&lt;/span&gt;&lt;span style=&quot;color: rgb(0, 0, 0);&quot;&gt;&amp;gt;,&lt;/span&gt;&lt;/div&gt;&lt;div&gt;&lt;span style=&quot;color: rgb(0, 0, 0);&quot;&gt;    &lt;/span&gt;&lt;span style=&quot;color: rgb(0, 0, 255);&quot;&gt;pub&lt;/span&gt;&lt;span style=&quot;color: rgb(0, 0, 0);&quot;&gt; &lt;/span&gt;&lt;span style=&quot;color: rgb(0, 0, 0);&quot;&gt;fstate&lt;/span&gt;&lt;span style=&quot;color: rgb(0, 0, 0);&quot;&gt;: &lt;/span&gt;&lt;span style=&quot;color: rgb(43, 145, 175);&quot;&gt;Option&lt;/span&gt;&lt;span style=&quot;color: rgb(0, 0, 0);&quot;&gt;&amp;lt;&lt;/span&gt;&lt;span style=&quot;color: rgb(43, 145, 175);&quot;&gt;Rc&lt;/span&gt;&lt;span style=&quot;color: rgb(0, 0, 0);&quot;&gt;&amp;lt;&lt;/span&gt;&lt;span style=&quot;color: rgb(0, 0, 255);&quot;&gt;dyn&lt;/span&gt;&lt;span style=&quot;color: rgb(0, 0, 0);&quot;&gt; &lt;/span&gt;&lt;span style=&quot;color: rgb(43, 145, 175);&quot;&gt;TraitStateTransitionFunction&lt;/span&gt;&lt;span style=&quot;color: rgb(0, 0, 0);&quot;&gt;&amp;gt;&amp;gt;,&lt;/span&gt;&lt;/div&gt;&lt;div&gt;&lt;span style=&quot;color: rgb(0, 0, 0);&quot;&gt;    &lt;/span&gt;&lt;span style=&quot;color: rgb(0, 0, 255);&quot;&gt;pub&lt;/span&gt;&lt;span style=&quot;color: rgb(0, 0, 0);&quot;&gt; &lt;/span&gt;&lt;span style=&quot;color: rgb(0, 0, 0);&quot;&gt;fpayoff&lt;/span&gt;&lt;span style=&quot;color: rgb(0, 0, 0);&quot;&gt;: &lt;/span&gt;&lt;span style=&quot;color: rgb(43, 145, 175);&quot;&gt;Option&lt;/span&gt;&lt;span style=&quot;color: rgb(0, 0, 0);&quot;&gt;&amp;lt;&lt;/span&gt;&lt;span style=&quot;color: rgb(43, 145, 175);&quot;&gt;Rc&lt;/span&gt;&lt;span style=&quot;color: rgb(0, 0, 0);&quot;&gt;&amp;lt;&lt;/span&gt;&lt;span style=&quot;color: rgb(0, 0, 255);&quot;&gt;dyn&lt;/span&gt;&lt;span style=&quot;color: rgb(0, 0, 0);&quot;&gt; &lt;/span&gt;&lt;span style=&quot;color: rgb(43, 145, 175);&quot;&gt;TraitPayOffFunction&lt;/span&gt;&lt;span style=&quot;color: rgb(0, 0, 0);&quot;&gt;&amp;gt;&amp;gt;,&lt;/span&gt;&lt;/div&gt;&lt;div&gt;&lt;span style=&quot;color: rgb(0, 0, 0);&quot;&gt;    &lt;/span&gt;&lt;span style=&quot;color: rgb(0, 0, 255);&quot;&gt;pub&lt;/span&gt;&lt;span style=&quot;color: rgb(0, 0, 0);&quot;&gt; &lt;/span&gt;&lt;span style=&quot;color: rgb(0, 0, 0);&quot;&gt;event_time&lt;/span&gt;&lt;span style=&quot;color: rgb(0, 0, 0);&quot;&gt;: &lt;/span&gt;&lt;span style=&quot;color: rgb(43, 145, 175);&quot;&gt;Option&lt;/span&gt;&lt;span style=&quot;color: rgb(0, 0, 0);&quot;&gt;&amp;lt;&lt;/span&gt;&lt;span style=&quot;color: rgb(43, 145, 175);&quot;&gt;T1&lt;/span&gt;&lt;span style=&quot;color: rgb(0, 0, 0);&quot;&gt;&amp;gt;,&lt;/span&gt;&lt;/div&gt;&lt;div&gt;&lt;span style=&quot;color: rgb(0, 0, 0);&quot;&gt;    &lt;/span&gt;&lt;span style=&quot;color: rgb(0, 0, 255);&quot;&gt;pub&lt;/span&gt;&lt;span style=&quot;color: rgb(0, 0, 0);&quot;&gt; &lt;/span&gt;&lt;span style=&quot;color: rgb(0, 0, 0);&quot;&gt;schedule_time&lt;/span&gt;&lt;span style=&quot;color: rgb(0, 0, 0);&quot;&gt;: &lt;/span&gt;&lt;span style=&quot;color: rgb(43, 145, 175);&quot;&gt;Option&lt;/span&gt;&lt;span style=&quot;color: rgb(0, 0, 0);&quot;&gt;&amp;lt;&lt;/span&gt;&lt;span style=&quot;color: rgb(43, 145, 175);&quot;&gt;T2&lt;/span&gt;&lt;span style=&quot;color: rgb(0, 0, 0);&quot;&gt;&amp;gt;,&lt;/span&gt;&lt;/div&gt;&lt;div&gt;&lt;span style=&quot;color: rgb(0, 0, 0);&quot;&gt;    &lt;/span&gt;&lt;span style=&quot;color: rgb(0, 0, 255);&quot;&gt;pub&lt;/span&gt;&lt;span style=&quot;color: rgb(0, 0, 0);&quot;&gt; &lt;/span&gt;&lt;span style=&quot;color: rgb(0, 0, 0);&quot;&gt;event_type&lt;/span&gt;&lt;span style=&quot;color: rgb(0, 0, 0);&quot;&gt;: &lt;/span&gt;&lt;span style=&quot;color: rgb(43, 145, 175);&quot;&gt;EventType&lt;/span&gt;&lt;span style=&quot;color: rgb(0, 0, 0);&quot;&gt;,&lt;/span&gt;&lt;/div&gt;&lt;div&gt;&lt;span style=&quot;color: rgb(0, 0, 0);&quot;&gt;    &lt;/span&gt;&lt;span style=&quot;color: rgb(0, 0, 255);&quot;&gt;pub&lt;/span&gt;&lt;span style=&quot;color: rgb(0, 0, 0);&quot;&gt; &lt;/span&gt;&lt;span style=&quot;color: rgb(0, 0, 0);&quot;&gt;currency&lt;/span&gt;&lt;span style=&quot;color: rgb(0, 0, 0);&quot;&gt;: &lt;/span&gt;&lt;span style=&quot;color: rgb(43, 145, 175);&quot;&gt;Option&lt;/span&gt;&lt;span style=&quot;color: rgb(0, 0, 0);&quot;&gt;&amp;lt;&lt;/span&gt;&lt;span style=&quot;color: rgb(43, 145, 175);&quot;&gt;Currency&lt;/span&gt;&lt;span style=&quot;color: rgb(0, 0, 0);&quot;&gt;&amp;gt;,&lt;/span&gt;&lt;/div&gt;&lt;div&gt;&lt;span style=&quot;color: rgb(0, 0, 0);&quot;&gt;    &lt;/span&gt;&lt;span style=&quot;color: rgb(0, 0, 255);&quot;&gt;pub&lt;/span&gt;&lt;span style=&quot;color: rgb(0, 0, 0);&quot;&gt; &lt;/span&gt;&lt;span style=&quot;color: rgb(0, 0, 0);&quot;&gt;payoff&lt;/span&gt;&lt;span style=&quot;color: rgb(0, 0, 0);&quot;&gt;: &lt;/span&gt;&lt;span style=&quot;color: rgb(43, 145, 175);&quot;&gt;Option&lt;/span&gt;&lt;span style=&quot;color: rgb(0, 0, 0);&quot;&gt;&amp;lt;&lt;/span&gt;&lt;span style=&quot;color: rgb(43, 145, 175);&quot;&gt;f64&lt;/span&gt;&lt;span style=&quot;color: rgb(0, 0, 0);&quot;&gt;&amp;gt;,&lt;/span&gt;&lt;/div&gt;&lt;div&gt;&lt;span style=&quot;color: rgb(0, 0, 0);&quot;&gt;    &lt;/span&gt;&lt;span style=&quot;color: rgb(0, 0, 255);&quot;&gt;pub&lt;/span&gt;&lt;span style=&quot;color: rgb(0, 0, 0);&quot;&gt; &lt;/span&gt;&lt;span style=&quot;color: rgb(0, 0, 0);&quot;&gt;state&lt;/span&gt;&lt;span style=&quot;color: rgb(0, 0, 0);&quot;&gt;: &lt;/span&gt;&lt;span style=&quot;color: rgb(43, 145, 175);&quot;&gt;StateSpace&lt;/span&gt;&lt;span style=&quot;color: rgb(0, 0, 0);&quot;&gt;,&lt;/span&gt;&lt;/div&gt;&lt;div&gt;&lt;span style=&quot;color: rgb(0, 0, 0);&quot;&gt;    &lt;/span&gt;&lt;span style=&quot;color: rgb(0, 0, 255);&quot;&gt;pub&lt;/span&gt;&lt;span style=&quot;color: rgb(0, 0, 0);&quot;&gt; &lt;/span&gt;&lt;span style=&quot;color: rgb(0, 0, 0);&quot;&gt;contract_id&lt;/span&gt;&lt;span style=&quot;color: rgb(0, 0, 0);&quot;&gt;: &lt;/span&gt;&lt;span style=&quot;color: rgb(43, 145, 175);&quot;&gt;Option&lt;/span&gt;&lt;span style=&quot;color: rgb(0, 0, 0);&quot;&gt;&amp;lt;&lt;/span&gt;&lt;span style=&quot;color: rgb(43, 145, 175);&quot;&gt;ContractID&lt;/span&gt;&lt;span style=&quot;color: rgb(0, 0, 0);&quot;&gt;&amp;gt;,&lt;/span&gt;&lt;/div&gt;&lt;div&gt;&lt;span style=&quot;color: rgb(0, 0, 0);&quot;&gt;}&lt;/span&gt;&lt;/div&gt;&lt;/div&gt;" style="rounded=0;whiteSpace=wrap;html=1;align=left;" vertex="1" parent="6">
                    <mxGeometry y="30" width="770" height="330" as="geometry"/>
                </mxCell>
                <mxCell id="8" value="EventFactory" style="swimlane;whiteSpace=wrap;html=1;" vertex="1" parent="1">
                    <mxGeometry x="1010" y="440" width="770" height="380" as="geometry"/>
                </mxCell>
                <mxCell id="9" value="&lt;div style=&quot;color: rgb(0, 0, 0); background-color: rgb(255, 255, 255); font-family: &amp;quot;Droid Sans Mono&amp;quot;, &amp;quot;monospace&amp;quot;, monospace; font-size: 14px; line-height: 19px; white-space: pre;&quot;&gt;&lt;div&gt;&lt;span style=&quot;color: rgb(0, 0, 255);&quot;&gt;pub&lt;/span&gt;&lt;span style=&quot;color: rgb(0, 0, 0);&quot;&gt; &lt;/span&gt;&lt;span style=&quot;color: rgb(0, 0, 255);&quot;&gt;struct&lt;/span&gt;&lt;span style=&quot;color: rgb(0, 0, 0);&quot;&gt; &lt;/span&gt;&lt;span style=&quot;color: rgb(43, 145, 175);&quot;&gt;ContractEvent&lt;/span&gt;&lt;span style=&quot;color: rgb(0, 0, 0);&quot;&gt;&amp;lt;&lt;/span&gt;&lt;span style=&quot;color: rgb(43, 145, 175);&quot;&gt;T1&lt;/span&gt;&lt;span style=&quot;color: rgb(0, 0, 0);&quot;&gt;, &lt;/span&gt;&lt;span style=&quot;color: rgb(43, 145, 175);&quot;&gt;T2&lt;/span&gt;&lt;span style=&quot;color: rgb(0, 0, 0);&quot;&gt;&amp;gt; {&lt;/span&gt;&lt;/div&gt;&lt;div&gt;&lt;span style=&quot;color: rgb(0, 0, 0);&quot;&gt;    &lt;/span&gt;&lt;span style=&quot;color: rgb(0, 0, 0);&quot;&gt;_marker_t1&lt;/span&gt;&lt;span style=&quot;color: rgb(0, 0, 0);&quot;&gt;: &lt;/span&gt;&lt;span style=&quot;color: rgb(43, 145, 175);&quot;&gt;PhantomData&lt;/span&gt;&lt;span style=&quot;color: rgb(0, 0, 0);&quot;&gt;&amp;lt;&lt;/span&gt;&lt;span style=&quot;color: rgb(43, 145, 175);&quot;&gt;T1&lt;/span&gt;&lt;span style=&quot;color: rgb(0, 0, 0);&quot;&gt;&amp;gt;,&lt;/span&gt;&lt;/div&gt;&lt;div&gt;&lt;span style=&quot;color: rgb(0, 0, 0);&quot;&gt;    &lt;/span&gt;&lt;span style=&quot;color: rgb(0, 0, 0);&quot;&gt;_marker_t2&lt;/span&gt;&lt;span style=&quot;color: rgb(0, 0, 0);&quot;&gt;: &lt;/span&gt;&lt;span style=&quot;color: rgb(43, 145, 175);&quot;&gt;PhantomData&lt;/span&gt;&lt;span style=&quot;color: rgb(0, 0, 0);&quot;&gt;&amp;lt;&lt;/span&gt;&lt;span style=&quot;color: rgb(43, 145, 175);&quot;&gt;T2&lt;/span&gt;&lt;span style=&quot;color: rgb(0, 0, 0);&quot;&gt;&amp;gt;,&lt;/span&gt;&lt;/div&gt;&lt;div&gt;&lt;span style=&quot;color: rgb(0, 0, 0);&quot;&gt;    &lt;/span&gt;&lt;span style=&quot;color: rgb(0, 0, 255);&quot;&gt;pub&lt;/span&gt;&lt;span style=&quot;color: rgb(0, 0, 0);&quot;&gt; &lt;/span&gt;&lt;span style=&quot;color: rgb(0, 0, 0);&quot;&gt;epoch_offset&lt;/span&gt;&lt;span style=&quot;color: rgb(0, 0, 0);&quot;&gt;: &lt;/span&gt;&lt;span style=&quot;color: rgb(43, 145, 175);&quot;&gt;Option&lt;/span&gt;&lt;span style=&quot;color: rgb(0, 0, 0);&quot;&gt;&amp;lt;&lt;/span&gt;&lt;span style=&quot;color: rgb(43, 145, 175);&quot;&gt;i64&lt;/span&gt;&lt;span style=&quot;color: rgb(0, 0, 0);&quot;&gt;&amp;gt;,&lt;/span&gt;&lt;/div&gt;&lt;div&gt;&lt;span style=&quot;color: rgb(0, 0, 0);&quot;&gt;    &lt;/span&gt;&lt;span style=&quot;color: rgb(0, 0, 255);&quot;&gt;pub&lt;/span&gt;&lt;span style=&quot;color: rgb(0, 0, 0);&quot;&gt; &lt;/span&gt;&lt;span style=&quot;color: rgb(0, 0, 0);&quot;&gt;fstate&lt;/span&gt;&lt;span style=&quot;color: rgb(0, 0, 0);&quot;&gt;: &lt;/span&gt;&lt;span style=&quot;color: rgb(43, 145, 175);&quot;&gt;Option&lt;/span&gt;&lt;span style=&quot;color: rgb(0, 0, 0);&quot;&gt;&amp;lt;&lt;/span&gt;&lt;span style=&quot;color: rgb(43, 145, 175);&quot;&gt;Rc&lt;/span&gt;&lt;span style=&quot;color: rgb(0, 0, 0);&quot;&gt;&amp;lt;&lt;/span&gt;&lt;span style=&quot;color: rgb(0, 0, 255);&quot;&gt;dyn&lt;/span&gt;&lt;span style=&quot;color: rgb(0, 0, 0);&quot;&gt; &lt;/span&gt;&lt;span style=&quot;color: rgb(43, 145, 175);&quot;&gt;TraitStateTransitionFunction&lt;/span&gt;&lt;span style=&quot;color: rgb(0, 0, 0);&quot;&gt;&amp;gt;&amp;gt;,&lt;/span&gt;&lt;/div&gt;&lt;div&gt;&lt;span style=&quot;color: rgb(0, 0, 0);&quot;&gt;    &lt;/span&gt;&lt;span style=&quot;color: rgb(0, 0, 255);&quot;&gt;pub&lt;/span&gt;&lt;span style=&quot;color: rgb(0, 0, 0);&quot;&gt; &lt;/span&gt;&lt;span style=&quot;color: rgb(0, 0, 0);&quot;&gt;fpayoff&lt;/span&gt;&lt;span style=&quot;color: rgb(0, 0, 0);&quot;&gt;: &lt;/span&gt;&lt;span style=&quot;color: rgb(43, 145, 175);&quot;&gt;Option&lt;/span&gt;&lt;span style=&quot;color: rgb(0, 0, 0);&quot;&gt;&amp;lt;&lt;/span&gt;&lt;span style=&quot;color: rgb(43, 145, 175);&quot;&gt;Rc&lt;/span&gt;&lt;span style=&quot;color: rgb(0, 0, 0);&quot;&gt;&amp;lt;&lt;/span&gt;&lt;span style=&quot;color: rgb(0, 0, 255);&quot;&gt;dyn&lt;/span&gt;&lt;span style=&quot;color: rgb(0, 0, 0);&quot;&gt; &lt;/span&gt;&lt;span style=&quot;color: rgb(43, 145, 175);&quot;&gt;TraitPayOffFunction&lt;/span&gt;&lt;span style=&quot;color: rgb(0, 0, 0);&quot;&gt;&amp;gt;&amp;gt;,&lt;/span&gt;&lt;/div&gt;&lt;div&gt;&lt;span style=&quot;color: rgb(0, 0, 0);&quot;&gt;    &lt;/span&gt;&lt;span style=&quot;color: rgb(0, 0, 255);&quot;&gt;pub&lt;/span&gt;&lt;span style=&quot;color: rgb(0, 0, 0);&quot;&gt; &lt;/span&gt;&lt;span style=&quot;color: rgb(0, 0, 0);&quot;&gt;event_time&lt;/span&gt;&lt;span style=&quot;color: rgb(0, 0, 0);&quot;&gt;: &lt;/span&gt;&lt;span style=&quot;color: rgb(43, 145, 175);&quot;&gt;Option&lt;/span&gt;&lt;span style=&quot;color: rgb(0, 0, 0);&quot;&gt;&amp;lt;&lt;/span&gt;&lt;span style=&quot;color: rgb(43, 145, 175);&quot;&gt;T1&lt;/span&gt;&lt;span style=&quot;color: rgb(0, 0, 0);&quot;&gt;&amp;gt;,&lt;/span&gt;&lt;/div&gt;&lt;div&gt;&lt;span style=&quot;color: rgb(0, 0, 0);&quot;&gt;    &lt;/span&gt;&lt;span style=&quot;color: rgb(0, 0, 255);&quot;&gt;pub&lt;/span&gt;&lt;span style=&quot;color: rgb(0, 0, 0);&quot;&gt; &lt;/span&gt;&lt;span style=&quot;color: rgb(0, 0, 0);&quot;&gt;schedule_time&lt;/span&gt;&lt;span style=&quot;color: rgb(0, 0, 0);&quot;&gt;: &lt;/span&gt;&lt;span style=&quot;color: rgb(43, 145, 175);&quot;&gt;Option&lt;/span&gt;&lt;span style=&quot;color: rgb(0, 0, 0);&quot;&gt;&amp;lt;&lt;/span&gt;&lt;span style=&quot;color: rgb(43, 145, 175);&quot;&gt;T2&lt;/span&gt;&lt;span style=&quot;color: rgb(0, 0, 0);&quot;&gt;&amp;gt;,&lt;/span&gt;&lt;/div&gt;&lt;div&gt;&lt;span style=&quot;color: rgb(0, 0, 0);&quot;&gt;    &lt;/span&gt;&lt;span style=&quot;color: rgb(0, 0, 255);&quot;&gt;pub&lt;/span&gt;&lt;span style=&quot;color: rgb(0, 0, 0);&quot;&gt; &lt;/span&gt;&lt;span style=&quot;color: rgb(0, 0, 0);&quot;&gt;event_type&lt;/span&gt;&lt;span style=&quot;color: rgb(0, 0, 0);&quot;&gt;: &lt;/span&gt;&lt;span style=&quot;color: rgb(43, 145, 175);&quot;&gt;EventType&lt;/span&gt;&lt;span style=&quot;color: rgb(0, 0, 0);&quot;&gt;,&lt;/span&gt;&lt;/div&gt;&lt;div&gt;&lt;span style=&quot;color: rgb(0, 0, 0);&quot;&gt;    &lt;/span&gt;&lt;span style=&quot;color: rgb(0, 0, 255);&quot;&gt;pub&lt;/span&gt;&lt;span style=&quot;color: rgb(0, 0, 0);&quot;&gt; &lt;/span&gt;&lt;span style=&quot;color: rgb(0, 0, 0);&quot;&gt;currency&lt;/span&gt;&lt;span style=&quot;color: rgb(0, 0, 0);&quot;&gt;: &lt;/span&gt;&lt;span style=&quot;color: rgb(43, 145, 175);&quot;&gt;Option&lt;/span&gt;&lt;span style=&quot;color: rgb(0, 0, 0);&quot;&gt;&amp;lt;&lt;/span&gt;&lt;span style=&quot;color: rgb(43, 145, 175);&quot;&gt;Currency&lt;/span&gt;&lt;span style=&quot;color: rgb(0, 0, 0);&quot;&gt;&amp;gt;,&lt;/span&gt;&lt;/div&gt;&lt;div&gt;&lt;span style=&quot;color: rgb(0, 0, 0);&quot;&gt;    &lt;/span&gt;&lt;span style=&quot;color: rgb(0, 0, 255);&quot;&gt;pub&lt;/span&gt;&lt;span style=&quot;color: rgb(0, 0, 0);&quot;&gt; &lt;/span&gt;&lt;span style=&quot;color: rgb(0, 0, 0);&quot;&gt;payoff&lt;/span&gt;&lt;span style=&quot;color: rgb(0, 0, 0);&quot;&gt;: &lt;/span&gt;&lt;span style=&quot;color: rgb(43, 145, 175);&quot;&gt;Option&lt;/span&gt;&lt;span style=&quot;color: rgb(0, 0, 0);&quot;&gt;&amp;lt;&lt;/span&gt;&lt;span style=&quot;color: rgb(43, 145, 175);&quot;&gt;f64&lt;/span&gt;&lt;span style=&quot;color: rgb(0, 0, 0);&quot;&gt;&amp;gt;,&lt;/span&gt;&lt;/div&gt;&lt;div&gt;&lt;span style=&quot;color: rgb(0, 0, 0);&quot;&gt;    &lt;/span&gt;&lt;span style=&quot;color: rgb(0, 0, 255);&quot;&gt;pub&lt;/span&gt;&lt;span style=&quot;color: rgb(0, 0, 0);&quot;&gt; &lt;/span&gt;&lt;span style=&quot;color: rgb(0, 0, 0);&quot;&gt;state&lt;/span&gt;&lt;span style=&quot;color: rgb(0, 0, 0);&quot;&gt;: &lt;/span&gt;&lt;span style=&quot;color: rgb(43, 145, 175);&quot;&gt;StateSpace&lt;/span&gt;&lt;span style=&quot;color: rgb(0, 0, 0);&quot;&gt;,&lt;/span&gt;&lt;/div&gt;&lt;div&gt;&lt;span style=&quot;color: rgb(0, 0, 0);&quot;&gt;    &lt;/span&gt;&lt;span style=&quot;color: rgb(0, 0, 255);&quot;&gt;pub&lt;/span&gt;&lt;span style=&quot;color: rgb(0, 0, 0);&quot;&gt; &lt;/span&gt;&lt;span style=&quot;color: rgb(0, 0, 0);&quot;&gt;contract_id&lt;/span&gt;&lt;span style=&quot;color: rgb(0, 0, 0);&quot;&gt;: &lt;/span&gt;&lt;span style=&quot;color: rgb(43, 145, 175);&quot;&gt;Option&lt;/span&gt;&lt;span style=&quot;color: rgb(0, 0, 0);&quot;&gt;&amp;lt;&lt;/span&gt;&lt;span style=&quot;color: rgb(43, 145, 175);&quot;&gt;ContractID&lt;/span&gt;&lt;span style=&quot;color: rgb(0, 0, 0);&quot;&gt;&amp;gt;,&lt;/span&gt;&lt;/div&gt;&lt;div&gt;&lt;span style=&quot;color: rgb(0, 0, 0);&quot;&gt;}&lt;/span&gt;&lt;/div&gt;&lt;/div&gt;" style="rounded=0;whiteSpace=wrap;html=1;align=left;" vertex="1" parent="8">
                    <mxGeometry y="30" width="770" height="330" as="geometry"/>
                </mxCell>
                <mxCell id="10" value="ScheduleFactory" style="swimlane;whiteSpace=wrap;html=1;" vertex="1" parent="1">
                    <mxGeometry x="130" y="860" width="770" height="630" as="geometry"/>
                </mxCell>
                <mxCell id="11" value="&lt;div style=&quot;color: rgb(0, 0, 0); background-color: rgb(255, 255, 255); font-family: &amp;quot;Droid Sans Mono&amp;quot;, &amp;quot;monospace&amp;quot;, monospace; font-size: 14px; line-height: 19px; white-space: pre;&quot;&gt;&lt;div style=&quot;color: rgb(0, 0, 0); line-height: 19px;&quot;&gt;&lt;div&gt;&lt;span style=&quot;color: rgb(0, 0, 255);&quot;&gt;pub&lt;/span&gt;&lt;span style=&quot;color: rgb(0, 0, 0);&quot;&gt; &lt;/span&gt;&lt;span style=&quot;color: rgb(0, 0, 255);&quot;&gt;fn&lt;/span&gt;&lt;span style=&quot;color: rgb(0, 0, 0);&quot;&gt; &lt;/span&gt;&lt;span style=&quot;color: rgb(0, 0, 0);&quot;&gt;create_schedule_end_time_true&lt;/span&gt;&lt;span style=&quot;color: rgb(0, 0, 0);&quot;&gt;(&lt;/span&gt;&lt;span style=&quot;color: rgb(128, 128, 128);&quot;&gt;start_time&lt;/span&gt;&lt;span style=&quot;color: rgb(0, 0, 0);&quot;&gt;: &amp;amp;&lt;/span&gt;&lt;span style=&quot;color: rgb(43, 145, 175);&quot;&gt;Option&lt;/span&gt;&lt;span style=&quot;color: rgb(0, 0, 0);&quot;&gt;&amp;lt;&lt;/span&gt;&lt;span style=&quot;color: rgb(43, 145, 175);&quot;&gt;T1&lt;/span&gt;&lt;span style=&quot;color: rgb(0, 0, 0);&quot;&gt;&amp;gt;,&lt;/span&gt;&lt;/div&gt;&lt;div&gt;&lt;span style=&quot;color: rgb(0, 0, 0);&quot;&gt;                                     &lt;/span&gt;&lt;span style=&quot;color: rgb(128, 128, 128);&quot;&gt;end_time&lt;/span&gt;&lt;span style=&quot;color: rgb(0, 0, 0);&quot;&gt;: &amp;amp;&lt;/span&gt;&lt;span style=&quot;color: rgb(43, 145, 175);&quot;&gt;Option&lt;/span&gt;&lt;span style=&quot;color: rgb(0, 0, 0);&quot;&gt;&amp;lt;&lt;/span&gt;&lt;span style=&quot;color: rgb(43, 145, 175);&quot;&gt;T2&lt;/span&gt;&lt;span style=&quot;color: rgb(0, 0, 0);&quot;&gt;&amp;gt;,&lt;/span&gt;&lt;/div&gt;&lt;div&gt;&lt;span style=&quot;color: rgb(0, 0, 0);&quot;&gt;                                     &lt;/span&gt;&lt;span style=&quot;color: rgb(128, 128, 128);&quot;&gt;cycle&lt;/span&gt;&lt;span style=&quot;color: rgb(0, 0, 0);&quot;&gt;: &amp;amp;&lt;/span&gt;&lt;span style=&quot;color: rgb(43, 145, 175);&quot;&gt;Option&lt;/span&gt;&lt;span style=&quot;color: rgb(0, 0, 0);&quot;&gt;&amp;lt;&lt;/span&gt;&lt;span style=&quot;color: rgb(43, 145, 175);&quot;&gt;U&lt;/span&gt;&lt;span style=&quot;color: rgb(0, 0, 0);&quot;&gt;&amp;gt;,&lt;/span&gt;&lt;/div&gt;&lt;div&gt;&lt;span style=&quot;color: rgb(0, 0, 0);&quot;&gt;                                     &lt;/span&gt;&lt;span style=&quot;color: rgb(128, 128, 128);&quot;&gt;end_of_month_convention&lt;/span&gt;&lt;span style=&quot;color: rgb(0, 0, 0);&quot;&gt;: &amp;amp;&lt;/span&gt;&lt;span style=&quot;color: rgb(43, 145, 175);&quot;&gt;EndOfMonthConvention&lt;/span&gt;&lt;/div&gt;&lt;div&gt;&lt;span style=&quot;color: rgb(0, 0, 0);&quot;&gt;&lt;span style=&quot;white-space: pre;&quot;&gt;&#x9;&lt;/span&gt;&lt;span style=&quot;white-space: pre;&quot;&gt;&#x9;&lt;/span&gt;&lt;span style=&quot;white-space: pre;&quot;&gt;&#x9;&lt;/span&gt;) &lt;/span&gt;&lt;span style=&quot;color: rgb(0, 0, 0);&quot;&gt;-&amp;gt;&lt;/span&gt;&lt;span style=&quot;color: rgb(0, 0, 0);&quot;&gt; &lt;/span&gt;&lt;span style=&quot;color: rgb(43, 145, 175);&quot;&gt;HashSet&lt;/span&gt;&lt;span style=&quot;color: rgb(0, 0, 0);&quot;&gt;&amp;lt;&lt;/span&gt;&lt;span style=&quot;color: rgb(43, 145, 175);&quot;&gt;TO&lt;/span&gt;&lt;span style=&quot;color: rgb(0, 0, 0);&quot;&gt;&amp;gt;&lt;/span&gt;&lt;/div&gt;&lt;/div&gt;&lt;/div&gt;&lt;span style=&quot;background-color: light-dark(rgb(255, 255, 255), rgb(18, 18, 18)); font-family: &amp;quot;Droid Sans Mono&amp;quot;, &amp;quot;monospace&amp;quot;, monospace; font-size: 14px; white-space: pre; color: rgb(0, 0, 0);&quot;&gt; &lt;/span&gt;&lt;span style=&quot;font-family: &amp;quot;Droid Sans Mono&amp;quot;, &amp;quot;monospace&amp;quot;, monospace; font-size: 14px; white-space: pre; background-color: light-dark(rgb(255, 255, 255), rgb(18, 18, 18)); color: rgb(0, 0, 0);&quot;&gt;    &lt;/span&gt;&lt;div&gt;&lt;span style=&quot;font-family: &amp;quot;Droid Sans Mono&amp;quot;, &amp;quot;monospace&amp;quot;, monospace; font-size: 14px; white-space: pre; background-color: light-dark(rgb(255, 255, 255), rgb(18, 18, 18)); color: rgb(0, 0, 255);&quot;&gt;pub&lt;/span&gt;&lt;span style=&quot;font-family: &amp;quot;Droid Sans Mono&amp;quot;, &amp;quot;monospace&amp;quot;, monospace; font-size: 14px; white-space: pre; background-color: light-dark(rgb(255, 255, 255), rgb(18, 18, 18)); color: rgb(0, 0, 0);&quot;&gt; &lt;/span&gt;&lt;span style=&quot;font-family: &amp;quot;Droid Sans Mono&amp;quot;, &amp;quot;monospace&amp;quot;, monospace; font-size: 14px; white-space: pre; background-color: light-dark(rgb(255, 255, 255), rgb(18, 18, 18)); color: rgb(0, 0, 255);&quot;&gt;fn&lt;/span&gt;&lt;span style=&quot;font-family: &amp;quot;Droid Sans Mono&amp;quot;, &amp;quot;monospace&amp;quot;, monospace; font-size: 14px; white-space: pre; background-color: light-dark(rgb(255, 255, 255), rgb(18, 18, 18)); color: rgb(0, 0, 0);&quot;&gt; &lt;/span&gt;&lt;span style=&quot;font-family: &amp;quot;Droid Sans Mono&amp;quot;, &amp;quot;monospace&amp;quot;, monospace; font-size: 14px; white-space: pre; background-color: light-dark(rgb(255, 255, 255), rgb(18, 18, 18)); color: rgb(0, 0, 0);&quot;&gt;create_schedule&lt;/span&gt;&lt;span style=&quot;font-family: &amp;quot;Droid Sans Mono&amp;quot;, &amp;quot;monospace&amp;quot;, monospace; font-size: 14px; white-space: pre; background-color: light-dark(rgb(255, 255, 255), rgb(18, 18, 18)); color: rgb(0, 0, 0);&quot;&gt;(&lt;/span&gt;&lt;br&gt;&lt;span style=&quot;background-color: light-dark(rgb(255, 255, 255), rgb(18, 18, 18)); font-family: &amp;quot;Droid Sans Mono&amp;quot;, &amp;quot;monospace&amp;quot;, monospace; font-size: 14px; white-space: pre; color: rgb(0, 0, 0);&quot;&gt;        &lt;/span&gt;&lt;span style=&quot;background-color: light-dark(rgb(255, 255, 255), rgb(18, 18, 18)); font-family: &amp;quot;Droid Sans Mono&amp;quot;, &amp;quot;monospace&amp;quot;, monospace; font-size: 14px; white-space: pre; color: rgb(128, 128, 128);&quot;&gt;start_time&lt;/span&gt;&lt;span style=&quot;background-color: light-dark(rgb(255, 255, 255), rgb(18, 18, 18)); font-family: &amp;quot;Droid Sans Mono&amp;quot;, &amp;quot;monospace&amp;quot;, monospace; font-size: 14px; white-space: pre; color: rgb(0, 0, 0);&quot;&gt;: &amp;amp;&lt;/span&gt;&lt;span style=&quot;background-color: light-dark(rgb(255, 255, 255), rgb(18, 18, 18)); font-family: &amp;quot;Droid Sans Mono&amp;quot;, &amp;quot;monospace&amp;quot;, monospace; font-size: 14px; white-space: pre; color: rgb(43, 145, 175);&quot;&gt;Option&lt;/span&gt;&lt;span style=&quot;background-color: light-dark(rgb(255, 255, 255), rgb(18, 18, 18)); font-family: &amp;quot;Droid Sans Mono&amp;quot;, &amp;quot;monospace&amp;quot;, monospace; font-size: 14px; white-space: pre; color: rgb(0, 0, 0);&quot;&gt;&amp;lt;&lt;/span&gt;&lt;span style=&quot;background-color: light-dark(rgb(255, 255, 255), rgb(18, 18, 18)); font-family: &amp;quot;Droid Sans Mono&amp;quot;, &amp;quot;monospace&amp;quot;, monospace; font-size: 14px; white-space: pre; color: rgb(43, 145, 175);&quot;&gt;T1&lt;/span&gt;&lt;span style=&quot;background-color: light-dark(rgb(255, 255, 255), rgb(18, 18, 18)); font-family: &amp;quot;Droid Sans Mono&amp;quot;, &amp;quot;monospace&amp;quot;, monospace; font-size: 14px; white-space: pre; color: rgb(0, 0, 0);&quot;&gt;&amp;gt;,&lt;/span&gt;&lt;br&gt;&lt;span style=&quot;background-color: light-dark(rgb(255, 255, 255), rgb(18, 18, 18)); font-family: &amp;quot;Droid Sans Mono&amp;quot;, &amp;quot;monospace&amp;quot;, monospace; font-size: 14px; white-space: pre; color: rgb(0, 0, 0);&quot;&gt;        &lt;/span&gt;&lt;span style=&quot;background-color: light-dark(rgb(255, 255, 255), rgb(18, 18, 18)); font-family: &amp;quot;Droid Sans Mono&amp;quot;, &amp;quot;monospace&amp;quot;, monospace; font-size: 14px; white-space: pre; color: rgb(128, 128, 128);&quot;&gt;end_time&lt;/span&gt;&lt;span style=&quot;background-color: light-dark(rgb(255, 255, 255), rgb(18, 18, 18)); font-family: &amp;quot;Droid Sans Mono&amp;quot;, &amp;quot;monospace&amp;quot;, monospace; font-size: 14px; white-space: pre; color: rgb(0, 0, 0);&quot;&gt;: &amp;amp;&lt;/span&gt;&lt;span style=&quot;background-color: light-dark(rgb(255, 255, 255), rgb(18, 18, 18)); font-family: &amp;quot;Droid Sans Mono&amp;quot;, &amp;quot;monospace&amp;quot;, monospace; font-size: 14px; white-space: pre; color: rgb(43, 145, 175);&quot;&gt;Option&lt;/span&gt;&lt;span style=&quot;background-color: light-dark(rgb(255, 255, 255), rgb(18, 18, 18)); font-family: &amp;quot;Droid Sans Mono&amp;quot;, &amp;quot;monospace&amp;quot;, monospace; font-size: 14px; white-space: pre; color: rgb(0, 0, 0);&quot;&gt;&amp;lt;&lt;/span&gt;&lt;span style=&quot;background-color: light-dark(rgb(255, 255, 255), rgb(18, 18, 18)); font-family: &amp;quot;Droid Sans Mono&amp;quot;, &amp;quot;monospace&amp;quot;, monospace; font-size: 14px; white-space: pre; color: rgb(43, 145, 175);&quot;&gt;T2&lt;/span&gt;&lt;span style=&quot;background-color: light-dark(rgb(255, 255, 255), rgb(18, 18, 18)); font-family: &amp;quot;Droid Sans Mono&amp;quot;, &amp;quot;monospace&amp;quot;, monospace; font-size: 14px; white-space: pre; color: rgb(0, 0, 0);&quot;&gt;&amp;gt;,&lt;/span&gt;&lt;br&gt;&lt;span style=&quot;background-color: light-dark(rgb(255, 255, 255), rgb(18, 18, 18)); font-family: &amp;quot;Droid Sans Mono&amp;quot;, &amp;quot;monospace&amp;quot;, monospace; font-size: 14px; white-space: pre; color: rgb(0, 0, 0);&quot;&gt;        &lt;/span&gt;&lt;span style=&quot;background-color: light-dark(rgb(255, 255, 255), rgb(18, 18, 18)); font-family: &amp;quot;Droid Sans Mono&amp;quot;, &amp;quot;monospace&amp;quot;, monospace; font-size: 14px; white-space: pre; color: rgb(128, 128, 128);&quot;&gt;cycle&lt;/span&gt;&lt;span style=&quot;background-color: light-dark(rgb(255, 255, 255), rgb(18, 18, 18)); font-family: &amp;quot;Droid Sans Mono&amp;quot;, &amp;quot;monospace&amp;quot;, monospace; font-size: 14px; white-space: pre; color: rgb(0, 0, 0);&quot;&gt;: &amp;amp;&lt;/span&gt;&lt;span style=&quot;background-color: light-dark(rgb(255, 255, 255), rgb(18, 18, 18)); font-family: &amp;quot;Droid Sans Mono&amp;quot;, &amp;quot;monospace&amp;quot;, monospace; font-size: 14px; white-space: pre; color: rgb(43, 145, 175);&quot;&gt;Option&lt;/span&gt;&lt;span style=&quot;background-color: light-dark(rgb(255, 255, 255), rgb(18, 18, 18)); font-family: &amp;quot;Droid Sans Mono&amp;quot;, &amp;quot;monospace&amp;quot;, monospace; font-size: 14px; white-space: pre; color: rgb(0, 0, 0);&quot;&gt;&amp;lt;&lt;/span&gt;&lt;span style=&quot;background-color: light-dark(rgb(255, 255, 255), rgb(18, 18, 18)); font-family: &amp;quot;Droid Sans Mono&amp;quot;, &amp;quot;monospace&amp;quot;, monospace; font-size: 14px; white-space: pre; color: rgb(43, 145, 175);&quot;&gt;U&lt;/span&gt;&lt;span style=&quot;background-color: light-dark(rgb(255, 255, 255), rgb(18, 18, 18)); font-family: &amp;quot;Droid Sans Mono&amp;quot;, &amp;quot;monospace&amp;quot;, monospace; font-size: 14px; white-space: pre; color: rgb(0, 0, 0);&quot;&gt;&amp;gt;,&lt;/span&gt;&lt;br&gt;&lt;span style=&quot;background-color: light-dark(rgb(255, 255, 255), rgb(18, 18, 18)); font-family: &amp;quot;Droid Sans Mono&amp;quot;, &amp;quot;monospace&amp;quot;, monospace; font-size: 14px; white-space: pre; color: rgb(0, 0, 0);&quot;&gt;        &lt;/span&gt;&lt;span style=&quot;background-color: light-dark(rgb(255, 255, 255), rgb(18, 18, 18)); font-family: &amp;quot;Droid Sans Mono&amp;quot;, &amp;quot;monospace&amp;quot;, monospace; font-size: 14px; white-space: pre; color: rgb(128, 128, 128);&quot;&gt;end_of_month_convention&lt;/span&gt;&lt;span style=&quot;background-color: light-dark(rgb(255, 255, 255), rgb(18, 18, 18)); font-family: &amp;quot;Droid Sans Mono&amp;quot;, &amp;quot;monospace&amp;quot;, monospace; font-size: 14px; white-space: pre; color: rgb(0, 0, 0);&quot;&gt;: &amp;amp;&lt;/span&gt;&lt;span style=&quot;background-color: light-dark(rgb(255, 255, 255), rgb(18, 18, 18)); font-family: &amp;quot;Droid Sans Mono&amp;quot;, &amp;quot;monospace&amp;quot;, monospace; font-size: 14px; white-space: pre; color: rgb(43, 145, 175);&quot;&gt;EndOfMonthConvention&lt;/span&gt;&lt;span style=&quot;background-color: light-dark(rgb(255, 255, 255), rgb(18, 18, 18)); font-family: &amp;quot;Droid Sans Mono&amp;quot;, &amp;quot;monospace&amp;quot;, monospace; font-size: 14px; white-space: pre; color: rgb(0, 0, 0);&quot;&gt;,&lt;/span&gt;&lt;br&gt;&lt;span style=&quot;background-color: light-dark(rgb(255, 255, 255), rgb(18, 18, 18)); font-family: &amp;quot;Droid Sans Mono&amp;quot;, &amp;quot;monospace&amp;quot;, monospace; font-size: 14px; white-space: pre; color: rgb(0, 0, 0);&quot;&gt;        &lt;/span&gt;&lt;span style=&quot;background-color: light-dark(rgb(255, 255, 255), rgb(18, 18, 18)); font-family: &amp;quot;Droid Sans Mono&amp;quot;, &amp;quot;monospace&amp;quot;, monospace; font-size: 14px; white-space: pre; color: rgb(128, 128, 128);&quot;&gt;add_end_time&lt;/span&gt;&lt;span style=&quot;background-color: light-dark(rgb(255, 255, 255), rgb(18, 18, 18)); font-family: &amp;quot;Droid Sans Mono&amp;quot;, &amp;quot;monospace&amp;quot;, monospace; font-size: 14px; white-space: pre; color: rgb(0, 0, 0);&quot;&gt;: &lt;/span&gt;&lt;span style=&quot;background-color: light-dark(rgb(255, 255, 255), rgb(18, 18, 18)); font-family: &amp;quot;Droid Sans Mono&amp;quot;, &amp;quot;monospace&amp;quot;, monospace; font-size: 14px; white-space: pre; color: rgb(43, 145, 175);&quot;&gt;bool&lt;/span&gt;&lt;span style=&quot;background-color: light-dark(rgb(255, 255, 255), rgb(18, 18, 18)); font-family: &amp;quot;Droid Sans Mono&amp;quot;, &amp;quot;monospace&amp;quot;, monospace; font-size: 14px; white-space: pre; color: rgb(0, 0, 0);&quot;&gt;,&lt;/span&gt;&lt;br&gt;&lt;div style=&quot;color: rgb(0, 0, 0); background-color: rgb(255, 255, 255); font-family: &amp;quot;Droid Sans Mono&amp;quot;, &amp;quot;monospace&amp;quot;, monospace; font-size: 14px; line-height: 19px; white-space: pre;&quot;&gt;&lt;div style=&quot;color: rgb(0, 0, 0); line-height: 19px;&quot;&gt;&lt;div style=&quot;color: rgb(0, 0, 0); line-height: 19px;&quot;&gt;&lt;div&gt;&lt;span style=&quot;color: rgb(0, 0, 0);&quot;&gt;    ) &lt;/span&gt;&lt;span style=&quot;color: rgb(0, 0, 0);&quot;&gt;-&amp;gt;&lt;/span&gt;&lt;span style=&quot;color: rgb(0, 0, 0);&quot;&gt; &lt;/span&gt;&lt;span style=&quot;color: rgb(43, 145, 175);&quot;&gt;HashSet&lt;/span&gt;&lt;span style=&quot;color: rgb(0, 0, 0);&quot;&gt;&amp;lt;&lt;/span&gt;&lt;span style=&quot;color: rgb(43, 145, 175);&quot;&gt;TO&lt;/span&gt;&lt;span style=&quot;color: rgb(0, 0, 0);&quot;&gt;&amp;gt;&lt;/span&gt;&lt;/div&gt;&lt;/div&gt;&lt;/div&gt;&lt;/div&gt;&lt;div style=&quot;color: rgb(0, 0, 0); background-color: rgb(255, 255, 255); font-family: &amp;quot;Droid Sans Mono&amp;quot;, &amp;quot;monospace&amp;quot;, monospace; font-size: 14px; line-height: 19px; white-space: pre;&quot;&gt;&lt;div style=&quot;color: rgb(0, 0, 0); line-height: 19px;&quot;&gt;&lt;div&gt;&lt;span style=&quot;color: rgb(0, 0, 0);&quot;&gt;&lt;br&gt;&lt;/span&gt;&lt;/div&gt;&lt;div style=&quot;color: rgb(0, 0, 0); line-height: 19px;&quot;&gt;&lt;div&gt;&lt;span style=&quot;color: #0000ff;&quot;&gt;pub&lt;/span&gt;&lt;span style=&quot;color: #000000;&quot;&gt; &lt;/span&gt;&lt;span style=&quot;color: #0000ff;&quot;&gt;fn&lt;/span&gt;&lt;span style=&quot;color: #000000;&quot;&gt; &lt;/span&gt;&lt;span style=&quot;color: #000000;&quot;&gt;create_array_schedule&lt;/span&gt;&lt;span style=&quot;color: #000000;&quot;&gt;(&lt;/span&gt;&lt;/div&gt;&lt;div&gt;&lt;span style=&quot;color: #000000;&quot;&gt;        &lt;/span&gt;&lt;span style=&quot;color: #808080;&quot;&gt;start_times&lt;/span&gt;&lt;span style=&quot;color: #000000;&quot;&gt;: &amp;amp;&lt;/span&gt;&lt;span style=&quot;color: #2b91af;&quot;&gt;Vec&lt;/span&gt;&lt;span style=&quot;color: #000000;&quot;&gt;&amp;lt;&lt;/span&gt;&lt;span style=&quot;color: #2b91af;&quot;&gt;T1&lt;/span&gt;&lt;span style=&quot;color: #000000;&quot;&gt;&amp;gt;,&lt;/span&gt;&lt;/div&gt;&lt;div&gt;&lt;span style=&quot;color: #000000;&quot;&gt;        &lt;/span&gt;&lt;span style=&quot;color: #808080;&quot;&gt;end_time&lt;/span&gt;&lt;span style=&quot;color: #000000;&quot;&gt;: &amp;amp;&lt;/span&gt;&lt;span style=&quot;color: #2b91af;&quot;&gt;Option&lt;/span&gt;&lt;span style=&quot;color: #000000;&quot;&gt;&amp;lt;&lt;/span&gt;&lt;span style=&quot;color: #2b91af;&quot;&gt;T2&lt;/span&gt;&lt;span style=&quot;color: #000000;&quot;&gt;&amp;gt;,&lt;/span&gt;&lt;/div&gt;&lt;div&gt;&lt;span style=&quot;color: #000000;&quot;&gt;        &lt;/span&gt;&lt;span style=&quot;color: #808080;&quot;&gt;cycles&lt;/span&gt;&lt;span style=&quot;color: #000000;&quot;&gt;: &amp;amp;&lt;/span&gt;&lt;span style=&quot;color: #2b91af;&quot;&gt;Vec&lt;/span&gt;&lt;span style=&quot;color: #000000;&quot;&gt;&amp;lt;&lt;/span&gt;&lt;span style=&quot;color: #2b91af;&quot;&gt;U&lt;/span&gt;&lt;span style=&quot;color: #000000;&quot;&gt;&amp;gt;,&lt;/span&gt;&lt;/div&gt;&lt;div&gt;&lt;span style=&quot;color: #000000;&quot;&gt;        &lt;/span&gt;&lt;span style=&quot;color: #808080;&quot;&gt;end_of_month_convention&lt;/span&gt;&lt;span style=&quot;color: #000000;&quot;&gt;: &amp;amp;&lt;/span&gt;&lt;span style=&quot;color: #2b91af;&quot;&gt;EndOfMonthConvention&lt;/span&gt;&lt;span style=&quot;color: #000000;&quot;&gt;,&lt;/span&gt;&lt;/div&gt;&lt;/div&gt;&lt;div&gt;&lt;span style=&quot;color: rgb(0, 0, 0);&quot;&gt;&lt;span style=&quot;background-color: light-dark(rgb(255, 255, 255), rgb(18, 18, 18)); color: rgb(0, 0, 0);&quot;&gt;    ) &lt;/span&gt;&lt;span style=&quot;background-color: light-dark(rgb(255, 255, 255), rgb(18, 18, 18)); color: rgb(0, 0, 0);&quot;&gt;-&amp;gt;&lt;/span&gt;&lt;span style=&quot;background-color: light-dark(rgb(255, 255, 255), rgb(18, 18, 18)); color: rgb(0, 0, 0);&quot;&gt; &lt;/span&gt;&lt;span style=&quot;background-color: light-dark(rgb(255, 255, 255), rgb(18, 18, 18)); color: rgb(43, 145, 175);&quot;&gt;HashSet&lt;/span&gt;&lt;span style=&quot;background-color: light-dark(rgb(255, 255, 255), rgb(18, 18, 18)); color: rgb(0, 0, 0);&quot;&gt;&amp;lt;&lt;/span&gt;&lt;span style=&quot;background-color: light-dark(rgb(255, 255, 255), rgb(18, 18, 18)); color: rgb(43, 145, 175);&quot;&gt;TO&lt;/span&gt;&lt;span style=&quot;background-color: light-dark(rgb(255, 255, 255), rgb(18, 18, 18)); color: rgb(0, 0, 0);&quot;&gt;&amp;gt;&lt;/span&gt; &lt;/span&gt;&lt;/div&gt;&lt;/div&gt;&lt;/div&gt;&lt;/div&gt;" style="rounded=0;whiteSpace=wrap;html=1;align=left;" vertex="1" parent="10">
                    <mxGeometry y="30" width="770" height="600" as="geometry"/>
                </mxCell>
            </root>
        </mxGraphModel>
    </diagram>
</mxfile>